<svg version="1.1" id="Layer_1" xmlns="http://www.w3.org/2000/svg" xmlns:xlink="http://www.w3.org/1999/xlink" x="0px" y="0px"
	 width="100%" viewBox="0 0 400 1024" enable-background="new 0 0 400 1024" xml:space="preserve">
<path fill="#000000" opacity="1.000000" stroke="none" 
	d="
M68.531342,1.000000 
	C68.604462,2.194804 67.562149,2.222606 66.575264,2.331593 
	C54.782352,3.633942 44.148174,9.082397 32.738739,11.821620 
	C26.584154,13.299235 24.695423,16.490667 24.385756,23.236670 
	C23.787094,36.278210 24.884279,48.961929 29.914133,61.337582 
	C33.205818,69.436584 33.639969,78.409111 34.328667,87.151939 
	C34.743366,92.416389 36.303928,96.927666 40.463226,100.642273 
	C42.564255,102.518661 43.710064,105.526207 45.105217,108.120476 
	C50.480244,118.115257 54.509605,128.749344 62.114819,137.634628 
	C66.805794,143.115189 71.857834,148.902115 73.924461,156.159622 
	C75.891129,163.066101 79.687782,169.187531 81.847748,175.954544 
	C83.385643,180.772690 86.812607,182.872345 91.287613,183.533707 
	C94.278526,183.975708 95.699135,185.687866 97.392723,187.930939 
	C101.503059,193.374863 106.737106,197.944214 110.418640,203.739029 
	C119.212616,217.580902 130.136337,230.138733 137.100769,245.036896 
	C143.859924,259.495972 152.132385,273.226440 156.332306,288.992706 
	C159.323456,300.221252 165.218811,310.657349 169.551147,321.553223 
	C173.154175,330.614868 174.932434,340.209625 177.291214,349.644928 
	C180.008835,360.515594 181.757675,371.520233 181.191895,382.600250 
	C180.371918,398.658112 184.283035,414.190063 185.190277,430.025970 
	C185.294983,431.853790 185.342072,433.687378 185.342697,435.518311 
	C185.351181,460.679352 185.283890,485.840668 185.380508,511.001343 
	C185.413330,519.550415 183.857880,527.814148 181.279663,535.859741 
	C178.304214,545.144836 174.568222,554.190613 171.718750,563.510376 
	C169.441925,570.957153 164.079025,576.550842 160.905045,583.388123 
	C156.565186,592.736877 151.060059,601.357666 144.769333,609.447083 
	C135.968323,620.764526 129.147476,633.386780 120.797600,645.015137 
	C114.062469,654.394592 105.934669,662.551697 99.002312,671.595581 
	C93.521217,678.746094 87.335518,685.464355 82.541832,693.134827 
	C80.003525,697.196289 78.523857,701.912842 76.046570,706.020264 
	C70.539925,715.150452 65.416206,724.513489 58.815849,732.982117 
	C52.200138,741.470398 47.473888,751.171143 42.984299,760.878479 
	C37.357197,773.045410 30.330002,784.425049 24.120148,796.256470 
	C17.112440,809.608215 11.024817,823.398560 5.818796,837.542603 
	C3.349681,844.250854 2.667544,851.405640 2.350614,858.549500 
	C1.939121,867.824951 3.241092,877.146179 1.302493,886.694275 
	C1.000000,591.666687 1.000000,296.333313 1.000000,1.000000 
	C23.416458,1.000000 45.739571,1.000000 68.531342,1.000000 
z"/>
<path fill="#000000" opacity="1.000000" stroke="none" 
	d="
M100.468658,1025.000000 
	C101.018814,1023.571350 102.615219,1023.801086 104.066452,1023.529480 
	C120.666649,1020.423279 136.912796,1015.677917 152.799789,1010.264282 
	C166.848602,1005.477051 181.542831,1001.269104 193.203812,991.013000 
	C195.381317,989.097839 198.514709,988.133545 201.224686,987.179565 
	C213.350677,982.910950 223.306793,974.546509 235.074066,969.719299 
	C245.641983,965.384094 255.298019,959.471497 264.415955,952.759583 
	C275.185669,944.831665 286.709961,938.016541 295.336823,927.117798 
	C300.853638,920.148071 307.231201,913.718689 312.830017,906.685181 
	C316.723236,901.794373 319.196472,896.245422 321.105255,890.432129 
	C326.279510,874.673950 329.611542,858.420288 333.261719,842.283264 
	C335.516754,832.313904 335.696960,821.890686 337.647491,811.833862 
	C341.774353,790.556152 346.339630,769.382568 351.875214,748.385742 
	C355.185608,735.829285 356.978760,722.788452 358.967865,709.856323 
	C360.551819,699.558105 361.303497,689.185852 362.831482,678.892273 
	C365.308655,662.204468 368.106689,645.565186 369.954071,628.754333 
	C371.680420,613.044556 374.210083,597.309387 378.287415,581.918030 
	C381.639008,569.266174 383.365570,556.263916 385.985474,543.473206 
	C388.606964,530.674927 389.982025,517.680176 392.958557,504.916046 
	C394.805847,496.994293 395.699463,488.605682 396.967072,480.455627 
	C398.519073,470.476685 399.008606,460.445404 400.637817,450.237488 
	C401.000000,641.570862 401.000000,833.141785 401.000000,1025.000000 
	C300.979279,1025.000000 200.958298,1025.000000 100.468658,1025.000000 
z"/>
<path fill="#000000" opacity="1.000000" stroke="none" 
	d="
M401.000000,307.531342 
	C399.583069,306.950500 399.558136,305.349213 399.706451,303.907013 
	C401.021484,291.118866 396.949127,278.945190 395.544922,266.470825 
	C393.436462,247.740646 387.755371,229.877625 380.641632,212.662003 
	C377.007111,203.866348 371.142059,195.810623 366.305359,187.407104 
	C362.545685,180.874863 358.070984,174.777069 354.194733,168.280487 
	C351.529480,163.813461 347.416229,160.059402 344.268036,155.685455 
	C336.810944,145.324921 329.830872,134.460464 321.192932,125.160507 
	C314.098816,117.522705 309.106903,108.497971 302.189880,100.776497 
	C293.361420,90.921318 285.854950,79.877541 277.839111,69.300262 
	C272.465759,62.209873 266.267914,55.841209 260.499756,49.104195 
	C253.454483,40.875565 244.847260,34.611248 236.399323,28.112434 
	C232.166748,24.856400 227.219559,22.523407 222.115448,21.181402 
	C209.136765,17.768963 196.767319,12.471031 183.827179,9.064103 
	C176.827881,7.221306 169.526062,6.697609 162.222458,6.168514 
	C150.889481,5.347520 139.646194,3.288619 128.182434,1.377257 
	C218.931320,1.000000 309.862640,1.000000 401.000000,1.000000 
	C401.000000,103.020805 401.000000,205.041748 401.000000,307.531342 
z"/>
<path fill="#000000" opacity="1.000000" stroke="none" 
	d="
M1.000000,911.468628 
	C2.852359,914.277710 3.268831,917.966919 3.264843,921.547180 
	C3.253464,931.761963 7.190386,940.967224 10.534738,950.244019 
	C11.994025,954.291992 13.387280,958.385925 14.385859,962.497437 
	C17.342667,974.671631 23.418068,985.555176 28.292969,996.901428 
	C30.332136,1001.647644 34.244244,1005.614136 38.668869,1009.086853 
	C47.864727,1016.304443 58.024887,1020.865967 69.343468,1023.216370 
	C70.108948,1023.375305 70.771782,1024.028442 71.741180,1024.725830 
	C48.389427,1025.000000 24.778854,1025.000000 1.000000,1025.000000 
	C1.000000,987.312622 1.000000,949.624939 1.000000,911.468628 
z"/>
<path fill="#000000" opacity="1.000000" stroke="none" 
	d="
M151.620911,790.764893 
	C154.581909,777.946106 160.010712,766.520264 165.425018,755.089966 
	C165.780212,754.340088 166.158279,753.576294 166.664154,752.926880 
	C168.650131,750.377136 169.914520,746.241211 173.711731,746.655090 
	C177.839325,747.104980 177.516403,751.481323 178.432495,754.578125 
	C180.145828,760.370056 183.311386,765.510132 185.941467,770.883301 
	C189.255722,777.654175 190.063721,784.477966 187.335556,791.641479 
	C185.601776,796.193909 184.766434,800.944519 184.948090,805.835266 
	C185.577026,822.767212 181.703812,838.853577 175.834091,854.568542 
	C174.475540,858.205811 173.605499,861.925659 174.484741,865.808167 
	C175.096298,868.508545 174.334579,870.289551 171.671112,871.336609 
	C168.998077,872.387268 166.958527,874.306335 164.919937,876.337463 
	C159.626923,881.611206 151.991119,880.164368 149.779007,873.286804 
	C143.964218,855.208374 143.643158,836.697632 146.066986,818.023621 
	C147.246567,808.935730 149.009277,799.975403 151.620911,790.764893 
z"/>
<path fill="#000000" opacity="1.000000" stroke="none" 
	d="
M202.440979,724.348022 
	C197.459900,705.950806 196.220230,687.612427 197.250366,669.039246 
	C197.954453,656.344788 199.890869,643.902771 203.974426,631.834167 
	C204.294525,630.888123 204.576157,629.919128 205.001694,629.020508 
	C206.114853,626.669800 206.635437,623.488220 209.832321,623.249390 
	C213.025650,623.010803 214.314484,625.939636 215.454514,628.244568 
	C227.755249,653.115234 236.319153,679.005981 236.051468,707.142761 
	C235.925659,720.366211 227.195175,729.607117 214.024109,730.932495 
	C213.361984,730.999146 212.690857,730.980408 212.030029,731.055237 
	C204.927460,731.859558 204.927795,731.862549 202.440979,724.348022 
z"/>
<path fill="#000000" opacity="1.000000" stroke="none" 
	d="
M250.626083,516.284241 
	C245.048660,506.168488 240.898438,495.881805 238.142059,485.033051 
	C236.408661,478.210541 240.773666,468.578461 247.175247,465.516235 
	C248.958893,464.663025 250.959091,464.273438 252.786133,463.497345 
	C255.382385,462.394623 257.978333,459.511200 260.507782,463.388763 
	C263.386108,467.801178 267.449219,471.593781 265.376343,478.024567 
	C263.054047,485.229248 261.289307,492.693848 261.181305,500.349640 
	C261.075439,507.851471 258.345978,514.537781 255.584229,521.429688 
	C252.501236,520.993286 252.087006,518.367004 250.626083,516.284241 
z"/>
<path fill="#000000" opacity="1.000000" stroke="none" 
	d="
M84.607201,901.490234 
	C79.540688,906.038208 78.331459,905.531372 76.599640,899.435608 
	C73.419502,888.242065 76.479446,877.636658 79.431587,867.079285 
	C81.488266,859.724182 84.000320,852.444946 87.960854,845.834717 
	C89.801132,842.763245 92.209885,838.725769 96.171837,840.332458 
	C100.425819,842.057556 99.007790,846.467834 97.840652,850.028442 
	C95.364151,857.583496 94.155602,865.595886 89.509224,872.373352 
	C88.387222,874.009949 88.032990,876.146362 88.602448,878.162292 
	C90.941872,886.444092 88.450706,893.901123 84.607201,901.490234 
z"/>
<path fill="#000000" opacity="1.000000" stroke="none" 
	d="
M244.831009,659.427734 
	C244.474243,657.848694 243.361603,656.781799 243.924530,655.354004 
	C254.965271,658.383789 259.958038,667.377014 259.402924,678.772888 
	C258.922638,688.632385 252.489944,694.466003 247.617020,701.518188 
	C246.713394,702.825989 245.086990,703.093384 243.548325,702.455933 
	C242.038712,701.830566 241.822113,700.384399 242.086060,699.087219 
	C242.944611,694.867798 243.115707,690.206177 245.119370,686.581482 
	C250.201447,677.387817 249.897675,668.668457 244.831009,659.427734 
z"/>
<path fill="#000000" opacity="1.000000" stroke="none" 
	d="
M114.933090,889.582275 
	C114.385124,893.403442 113.325829,896.136047 109.036911,895.856323 
	C104.812225,895.580750 103.349266,892.863586 103.015373,889.254700 
	C102.694618,885.787964 102.592789,882.283569 104.057899,878.971619 
	C104.965492,876.919983 106.078468,875.052307 108.706924,875.169495 
	C111.144630,875.278137 112.662704,876.793518 113.546974,878.897156 
	C114.923607,882.171936 115.198685,885.636841 114.933090,889.582275 
z"/>
<path fill="#000000" opacity="1.000000" stroke="none" 
	d="
M149.254791,974.568726 
	C150.052979,976.854797 149.302704,978.191345 147.391418,978.684082 
	C145.289276,979.226013 142.933105,979.628174 141.261749,977.963196 
	C139.369186,976.077759 140.144760,974.188538 142.488632,973.379395 
	C144.699661,972.616150 147.056793,972.526367 149.254791,974.568726 
z"/>
</svg>